<svg width="36" height="36" viewBox="0 0 36 36" fill="none" xmlns="http://www.w3.org/2000/svg">
<rect x="0.498901" y="0.5" width="35.0011" height="35.0011" stroke="black"/>
<path d="M27.707 26.2931C27.7999 26.386 27.8736 26.4963 27.9239 26.6177C27.9741 26.7391 28 26.8692 28 27.0006C28 27.132 27.9741 27.2621 27.9239 27.3835C27.8736 27.5048 27.7999 27.6151 27.707 27.7081C27.614 27.801 27.5037 27.8747 27.3824 27.9249C27.261 27.9752 27.1309 28.0011 26.9995 28.0011C26.8681 28.0011 26.738 27.9752 26.6166 27.9249C26.4952 27.8747 26.3849 27.801 26.292 27.7081L17.9995 19.4143L9.70696 27.7081C9.51932 27.8957 9.26482 28.0011 8.99946 28.0011C8.73409 28.0011 8.4796 27.8957 8.29196 27.7081C8.10432 27.5204 7.9989 27.2659 7.9989 27.0006C7.9989 26.7352 8.10432 26.4807 8.29196 26.2931L16.5857 18.0006L8.29196 9.70806C8.10432 9.52042 7.9989 9.26592 7.9989 9.00056C7.9989 8.73519 8.10432 8.4807 8.29196 8.29306C8.4796 8.10542 8.73409 8 8.99946 8C9.26482 8 9.51932 8.10542 9.70696 8.29306L17.9995 16.5868L26.292 8.29306C26.4796 8.10542 26.7341 8 26.9995 8C27.2648 8 27.5193 8.10542 27.707 8.29306C27.8946 8.4807 28 8.73519 28 9.00056C28 9.26592 27.8946 9.52042 27.707 9.70806L19.4132 18.0006L27.707 26.2931Z" fill="#232323"/>
</svg>
